<svg width="1440" height="1024" viewBox="0 0 1440 1024" fill="none" xmlns="http://www.w3.org/2000/svg">
<path fill-rule="evenodd" clip-rule="evenodd" d="M1064.7 539.081C1097.45 538.962 1134.28 489.029 1153.26 467.7C1190.82 425.528 1225.5 381.665 1260.74 338.209C1295.97 294.753 1331.11 251.179 1369.79 209.742C1394.9 182.837 1423.19 151.223 1459.04 132.98C1535.44 94.1158 1524.07 216.695 1525.74 248.448C1529.99 329.225 1528.02 421.877 1567.79 497.6C1591.53 542.804 1631.36 560.835 1689.41 551.138C1708.29 548.013 1730.01 538.755 1748.4 546.605C1768.04 554.987 1779.38 574.264 1786.97 590.263C1814.66 648.617 1817.85 715.705 1821.32 777.443C1825.12 844.014 1823.99 911.211 1824.28 977.313C1824.39 1005.34 1836.68 1034.62 1846.66 1061.31C1859.75 1096.3 1874.45 1130.88 1888.66 1165.59C1919.85 1241.93 1952.7 1320.6 1960.61 1401.37C1965.57 1451.96 1958.85 1507.24 1915.65 1546.52C1893.96 1566.25 1861.72 1576.57 1833.08 1587.97C1798.48 1601.77 1763.54 1615.02 1729.49 1629.71C1619.81 1677.04 1512.62 1744.63 1507.22 1854.35C1506.4 1870.95 1509.04 1887.26 1509.54 1903.78C1509.84 1914.3 1506.73 1923.66 1493.3 1927.57C1459.6 1937.4 1406.4 1906.48 1379.67 1893.8C1321.15 1866.04 1265.25 1834.74 1207.91 1805.42C1169.98 1786.02 1118.15 1752.44 1072.07 1752.08C1031.01 1751.76 1001.32 1796.5 981.09 1820.86C962.149 1843.68 935.642 1885.03 897.12 1887.53C878.442 1888.74 862.964 1878.64 850.954 1868.1C829.949 1849.63 815.133 1828.35 791.167 1811.73C751.849 1784.48 697.748 1761.7 644.758 1765.39C608.041 1767.95 583.993 1785.11 561.004 1806.94C551.338 1816.11 544.5 1823.56 528.81 1824.04C503.896 1824.82 477.532 1816.82 454.434 1810.23C371.771 1786.65 291.841 1753.17 217.212 1715.93C179.916 1697.32 142.735 1677.21 110.922 1652.54C90.0315 1636.38 65.1696 1614.59 65.203 1589.95C65.2085 1561.42 77.781 1531.24 87.1828 1503.51C104.754 1451.72 125.065 1400.55 145.902 1349.59C194.11 1231.74 246.22 1115 302.232 999.361C341.753 917.911 381.332 834.733 433.867 758.159C444.184 743.225 456.212 729.13 469.79 716.064C484.049 702.103 490.431 684.777 495.19 667.208C524.728 558.166 502.091 438.694 487.902 329.189C484.308 301.394 480.694 273.6 478.178 245.727C476.015 221.766 469.804 193.079 479.148 169.793C497.539 123.908 565.283 164.036 592.886 181.001C690.076 240.73 772.299 317.784 856.242 389.205C896.218 423.163 936.089 457.379 978.328 489.492C1000.29 506.213 1036 539.185 1064.7 539.081Z" stroke="#5BE7C3"/>
<path fill-rule="evenodd" clip-rule="evenodd" d="M1070.22 559.659C1104.87 541.364 1130.48 509.258 1154.59 482.608C1189.29 444.257 1222.07 404.701 1255.79 365.739C1287.68 328.899 1319.93 291.98 1356.14 257.865C1378.22 237.062 1404.63 210.961 1437.28 201.111C1508.06 179.747 1497.3 294.754 1499.15 323.147C1503.72 393.733 1504.75 473.759 1542 539.068C1565.26 579.849 1603.85 596.608 1657.43 587.922C1675.97 584.919 1691.79 579.505 1710.23 586.366C1731.57 594.3 1744.87 612.542 1754.26 629.264C1783.68 681.647 1789.92 743.561 1795.11 800.338C1800.47 858.995 1804.25 920.109 1800.31 976.877C1798.74 999.578 1807.62 1025.71 1814.43 1048.18C1824.92 1082.75 1837.03 1116.97 1848.29 1151.37C1871.18 1221.27 1893.24 1293 1895.73 1365.72C1897.53 1418.23 1887.69 1472.96 1849.69 1516.64C1811.14 1560.9 1751.41 1580.53 1694.62 1605.06C1596.44 1647.44 1477.07 1704.68 1456.31 1802.76C1453.16 1817.64 1454.86 1831.93 1454.09 1846.79C1453.7 1854.43 1452.45 1863.12 1443.26 1867C1419.4 1877.05 1375.77 1849.48 1357.49 1840.2C1306.99 1814.56 1258.95 1785.74 1209.42 1758.87C1170.09 1737.53 1126.39 1710.49 1079.76 1702.23C1023.18 1692.2 982.907 1757.61 943.062 1780.61C873.968 1820.48 834.619 1744.91 801.686 1707.65C763.877 1664.86 694.893 1629.54 636.375 1667.88C613.999 1682.54 600.661 1700.59 571.461 1707.14C525.796 1717.38 473.615 1709.62 428.479 1701.29C360.626 1688.76 293.509 1668.92 232.188 1641.97C188.285 1622.65 119.443 1590.62 124.616 1543.72C128.068 1512.15 140.664 1480.06 151.799 1449.32C168.464 1403.29 187.457 1357.85 207.186 1312.64C252.602 1208.3 302.676 1105.1 357.751 1003.94C395.343 934.907 548.949 742.367 554.431 727.878C570.761 684.678 567.897 635.557 565.376 591.015C562.028 531.764 553.334 472.809 545.28 413.902C541.468 385.861 536.805 357.679 534.931 329.49C533.598 309.426 532.458 283.077 546.693 265.506C574.466 231.209 637.99 269.437 664.865 285.247C747.258 333.68 818.604 394.94 891.555 452.38C927.372 480.568 963.132 509.187 1001.82 534.776C1017.45 545.096 1048.81 570.966 1070.22 559.659Z" stroke="#A6F4C5"/>
<path fill-rule="evenodd" clip-rule="evenodd" d="M1087.98 584.982C1157.33 535.013 1208.91 466.037 1266.82 406.509C1295.9 376.631 1325.77 346.566 1360.41 320.799C1378.42 307.395 1401.19 290.658 1426.29 288.08C1493.44 281.189 1484.34 384.847 1486.89 415.873C1491.82 475.859 1495.56 543.625 1529.82 598.052C1550.76 631.305 1585.14 647.685 1630.33 641.479C1650.38 638.728 1667.41 634.442 1687.1 641.49C1707.04 648.632 1721.11 663.506 1731.66 678.567C1761.99 721.848 1771.68 775.628 1778.9 824.352C1787.31 881.51 1790.58 939.096 1788.7 996.647C1787.08 1047.05 1805.22 1097.22 1817.17 1146.44C1833 1211.64 1846.82 1278.02 1844.72 1344.74C1843.05 1397.43 1829.98 1450.53 1795.29 1495.57C1759.95 1541.33 1707.07 1568.84 1650.01 1593.64C1563.75 1631.13 1448.16 1677.85 1415.38 1760.13C1410.61 1772.09 1410.08 1783.25 1409.25 1795.59C1408.84 1801.59 1408.72 1809.33 1401.09 1812.3C1382.72 1819.45 1347.11 1792.99 1334.7 1785.61C1295.08 1762.05 1257.25 1736.5 1218.16 1712.35C1181.66 1689.8 1143.63 1665.24 1100.86 1651.23C1032.74 1628.93 992.892 1700.16 927.978 1698.15C887.678 1696.9 858.783 1665.27 838.795 1640.22C814.216 1609.38 798.06 1564.97 753.198 1549.53C719.784 1538.02 700.332 1556.06 674.971 1569.95C632.002 1593.48 573.761 1595.08 524.027 1592.62C456.822 1589.3 388.625 1576.38 326.856 1554.4C298.855 1544.44 269.727 1532.24 247.981 1514.28C227.6 1497.46 222.381 1481.53 226.557 1459.06C239.365 1390.24 275.038 1320.77 306.902 1254.79C346.942 1171.89 391.144 1090.13 440.874 1010.81C474.788 956.728 510.669 901.422 557.519 853.953C569.733 841.581 583.007 828.912 599.115 819.867C611.223 813.029 621.22 810.127 628.135 798.599C648.621 764.431 643.274 716.897 641.152 680.283C637.774 621.737 628.763 563.472 620.649 505.285C615.881 471.331 600.875 407.367 636.904 380.261C668.015 356.865 721.046 385.115 748.445 399.545C817.735 436.047 878.545 482.997 941.16 526.558C969.856 546.522 998.772 567.268 1030.68 583.758C1038.81 587.97 1049.59 594.719 1059.47 595.88C1070.79 597.181 1079.44 591.117 1087.98 584.982Z" stroke="#5BE7C3"/>
<path fill-rule="evenodd" clip-rule="evenodd" d="M1071.84 589.276C1133.15 543.102 1183.53 487.47 1240.91 437.898C1266.63 415.671 1293.62 393.226 1325 376.292C1341.88 367.183 1363.12 357.512 1384.09 360.029C1444.29 367.25 1438.84 452.504 1442.36 486.948C1447.52 538.129 1452.73 596.927 1485.18 642.187C1506.43 671.836 1537.83 682.958 1578.33 677.431C1621.76 671.498 1653.29 684.788 1677.52 715.025C1707.87 752.934 1720.23 800.782 1729.01 844.793C1739.54 897.818 1744.21 951.513 1742.94 1005.22C1741.71 1057.46 1752.38 1108.07 1759.32 1159.96C1768.51 1228.77 1773.03 1299.78 1754.16 1367.8C1737.72 1427.02 1701.52 1480.51 1645.54 1520.6C1587.11 1562.48 1513.5 1583.2 1448.86 1617.2C1408.55 1638.41 1355.22 1667.98 1339.54 1707.62C1334.31 1720.84 1341.36 1744.94 1315.65 1734.37C1300.94 1728.33 1288.04 1717.04 1276.03 1708.11C1256.6 1693.69 1237.72 1678.79 1218.56 1664.12C1177.73 1632.86 1136.03 1599.39 1087.67 1575.96C1026.8 1546.44 979.929 1590.29 918.195 1584.94C884.973 1582.06 858.461 1563.12 837.635 1543.1C824.146 1530.14 812.463 1515.96 801.564 1501.48C790.177 1486.36 781.504 1468.48 766.783 1455.29C745.832 1436.5 721.026 1444.65 693.937 1448.17C646.33 1454.36 597.973 1455.71 549.961 1452.2C491.112 1447.89 430.583 1437.82 377.108 1416.62C356.289 1408.38 334.219 1397.93 320.262 1382.42C306.305 1366.91 307.264 1350.87 311.472 1333.1C323.903 1280.4 352.817 1227.81 380.221 1177.81C414.526 1115.24 452.863 1053.9 496.474 995.324C526.58 954.89 559.103 914.324 599.919 880.499C611.798 870.661 624.518 861.301 638.718 853.734C648.456 848.538 661.021 845.754 668.341 838.225C691.192 814.667 684.379 767.36 683.056 739.727C680.42 684.578 667.846 630.296 664.799 575.217C663.133 545.157 658.938 498.078 690.177 476.009C719.544 455.255 765.787 474.066 794.077 486.479C849.701 510.874 899.257 543.644 950.963 573.017C972.24 585.092 994.5 598.326 1018.8 606.151C1040.45 613.106 1056.12 601.109 1071.84 589.276Z" stroke="#A6F4C5"/>
<path fill-rule="evenodd" clip-rule="evenodd" d="M1070.84 600.635C1124.79 563.884 1172.69 519.575 1227.52 482.557C1259.63 460.889 1313.61 423.574 1358.87 440.345C1408.61 458.743 1409.95 522.843 1413.95 559.895C1418.71 603.995 1425.22 655.784 1456.27 693.53C1466.08 705.468 1479.08 715.639 1496.19 719.952C1514.51 724.571 1530.54 719.529 1548.88 718.875C1587.35 717.506 1618.23 736.331 1639.44 761.239C1669.42 796.443 1683.59 840.459 1693.47 882.033C1704.61 929.135 1710.09 977.017 1709.85 1024.99C1709.65 1070.85 1710.88 1116.21 1712.3 1162.11C1714.2 1222.13 1711.11 1283 1691.64 1341.22C1672.45 1398.58 1636.5 1450.72 1583.62 1491.67C1532.03 1531.62 1468.96 1558.57 1404.73 1582.17C1368.27 1595.56 1313.78 1618.19 1295.36 1650.15C1287.16 1664.36 1287.72 1678.3 1266.41 1663.19C1239.57 1644.15 1218.04 1618.5 1195.09 1596.45C1161.97 1564.65 1128.2 1532.05 1088.82 1505.36C1063.67 1488.31 1039.27 1480.71 1006.7 1481.88C981.893 1482.78 957.342 1486.89 932.44 1484.8C873.991 1479.92 833.915 1442.19 796.596 1408.83C772.594 1387.37 754.288 1367.77 720.142 1356.72C679.784 1343.65 635.876 1338.16 593.973 1329.42C547.957 1319.82 500.09 1308.74 459.563 1287.8C423.481 1269.16 407.303 1246.5 417.032 1212.59C432.194 1159.69 469.53 1107.56 504.069 1060.6C539.209 1012.81 578.719 965.84 627.015 926.24C653.096 904.86 683.717 890.271 711.734 871.285C746.908 847.404 733.598 793.361 730.628 761.244C725.696 707.93 688.746 540.17 808.524 555.673C858.52 562.143 904.657 587.596 948.772 606.212C967.08 613.928 989.052 625.094 1010.03 626.842C1032.88 628.747 1054.59 611.684 1070.84 600.635Z" stroke="#32D583"/>
<path fill-rule="evenodd" clip-rule="evenodd" d="M1066.25 620.044C1115.14 591.961 1161.33 558.349 1214.14 534.254C1248.34 518.623 1294.03 503.275 1330.2 523.455C1371.03 546.231 1380.54 596.437 1385.73 633.327C1391.08 671.336 1395.58 716.709 1426.53 747.779C1436.39 757.664 1449.69 765.814 1465.61 767.333C1480.88 768.799 1496.16 764.673 1511.71 766.044C1546.63 769.116 1575.4 786.472 1596.26 808.845C1657.99 875.027 1671.69 973.516 1673.29 1053.35C1674.09 1093.32 1669.87 1134.44 1666.84 1174.66C1662.92 1226.85 1654.51 1279.12 1634.25 1328.89C1591.2 1434.71 1495.74 1505.62 1376.96 1555.14C1339.58 1570.72 1299.13 1582.65 1269.08 1607.07C1253.57 1619.67 1242.43 1616.91 1228.28 1604.03C1206.18 1583.89 1189.28 1559.33 1170.84 1536.98C1144.6 1505.19 1117.97 1472.73 1086.54 1444.61C1064.87 1425.23 1044 1411.47 1011.5 1407.29C988.336 1404.31 964.727 1405 941.416 1403.21C897.131 1399.79 853.182 1388.11 816.452 1367.43C787.339 1351.01 760.881 1331.46 735.654 1311.25C702.81 1284.98 669.44 1262.76 630.457 1242.81C578.855 1216.35 483.667 1179.18 508.871 1116.9C536.683 1048.21 607.329 983.835 675.774 939.774C698.755 924.977 726.938 912.832 743.887 892.874C769.219 862.995 768.337 832.674 768.239 797.13C768.106 743.915 754.028 628.116 851.324 626.884C889.872 626.398 926.317 640.073 963.394 646.624C1004.92 654.013 1032.93 639.225 1066.25 620.044Z" stroke="#32D583"/>
<path fill-rule="evenodd" clip-rule="evenodd" d="M1061.89 640.968C1125.61 613.192 1230.32 550.901 1301.16 598.308C1338.6 623.349 1352.66 667.63 1361.04 704.776C1367.81 734.669 1370.35 770.719 1399.1 793.31C1420.24 809.914 1451.01 802.551 1477.47 808.916C1510.27 816.816 1537.11 834.94 1557.29 857.208C1613.66 919.436 1630.95 1005.95 1634.62 1080.79C1638.42 1158.52 1620.55 1244.17 1586.21 1317.31C1543.37 1408.5 1462.27 1476.81 1359.57 1524.58C1340.62 1533.39 1321.16 1541.4 1301.98 1549.86C1289.11 1555.54 1276.66 1563.97 1263.12 1568.45C1240.55 1575.91 1222.1 1567.11 1207.39 1553.01C1186.22 1532.73 1171.15 1507.82 1155.26 1484.7C1133.52 1453.08 1112.16 1420.76 1086.65 1391.35C1069.48 1371.59 1050.99 1350.9 1021.2 1343.82C1000.88 1338.99 979.36 1337.98 958.316 1338.15C913.193 1338.52 876.705 1336.57 835.382 1319.31C767.542 1290.89 706.545 1247.21 655.793 1201.07C615.963 1164.86 554.09 1107.56 580.735 1054.81C604.593 1007.49 661.684 979.812 707.842 948.638C730.282 933.481 750.777 916.454 766.74 896.445C786.864 871.22 795.311 847.47 798.608 817.579C804.16 767.269 805.615 691.409 879.264 675.871C906.444 670.134 934.595 673.417 962.126 670.411C998.53 666.483 1029.75 654.981 1061.89 640.968Z" stroke="#5BE7C3"/>
<path fill-rule="evenodd" clip-rule="evenodd" d="M1059.52 669.862C1129.24 650.088 1217.11 624.11 1279.06 671.913C1309.07 695.068 1325.85 727.633 1338.38 759.15C1347.36 781.722 1350 817.561 1377.63 831.404C1397.96 841.571 1426.01 842.984 1447.79 852.182C1477.74 864.822 1502.4 883.965 1521.71 906.422C1572.02 964.926 1591.45 1041.12 1597 1110.6C1609.05 1261.56 1512.8 1415.15 1354.48 1495.91C1307.29 1519.99 1257.06 1551.07 1208.86 1512.13C1156.28 1469.62 1131.65 1405.6 1094.29 1354.87C1080.02 1335.48 1062.88 1310.78 1037.04 1299.97C1021.52 1293.46 1002.03 1293.01 984.94 1292.71C941.401 1291.92 902.245 1288.95 861.621 1274.59C798.843 1252.43 740.927 1217.09 693.489 1177.04C652.125 1142.12 603.514 1092.31 633.349 1041.61C656.277 1002.74 704.931 978.089 740.798 947.887C780.743 914.277 807.664 872.706 820.823 827.052C833.591 782.64 842.205 733.928 896.416 710.531C915.012 702.505 939.09 694.121 959.671 691.115C993.605 686.263 1027 679.155 1059.52 669.862V669.862Z" stroke="#32D583"/>
<path fill-rule="evenodd" clip-rule="evenodd" d="M1059.03 702.079C1129.43 692.939 1202.83 691.936 1258.31 734.478C1284.19 754.333 1302.58 779.428 1319.23 804.805C1331.49 823.476 1341.83 842.757 1361.92 856.703C1380.53 869.624 1402.13 879.448 1421.23 891.923C1446.53 908.379 1468.44 928.068 1486.1 950.233C1530.29 1005.79 1550.94 1073.37 1558.1 1138.03C1561.58 1169.32 1563.39 1203.27 1553.88 1234.35C1544.71 1264.37 1530.21 1294.06 1513.31 1321.66C1477.4 1380.33 1424.83 1431.18 1358.37 1468.03C1312.78 1493.3 1268.45 1506.96 1222.22 1474.22C1170.1 1437.3 1141.35 1379.43 1107.53 1331.73C1084.34 1299.01 1061.6 1262.34 1012.29 1256.22C973.062 1251.35 935.825 1247.39 898.742 1234.79C844.044 1216.05 794.498 1188.49 753.043 1153.75C715.276 1121.99 683.23 1081.81 703.415 1036.38C719.434 1000.39 755.312 972.477 780.964 941.037C809.616 905.998 825.416 867.499 838.123 826.957C849.588 790.522 867.201 756.217 904.587 732.673C912.226 727.855 920.544 722.794 929.09 719.08C939.995 714.34 950.804 714.71 963.026 713.781C995.28 711.362 1027.16 706.212 1059.03 702.079Z" stroke="#32D583"/>
<path fill-rule="evenodd" clip-rule="evenodd" d="M1064.77 737.604C1131.64 738.399 1194.83 751.588 1246.94 787.69C1269.23 803.124 1287.59 821.552 1308.01 838.535C1324.48 852.208 1339.78 865.13 1353.35 880.852C1385.47 918.146 1427.05 948.459 1455.65 988.09C1493.9 1041 1515.03 1101.59 1523.48 1161.72C1527.6 1191.08 1529.04 1221.4 1524.37 1251.11C1520.35 1276.62 1506.28 1301.04 1491.88 1323.7C1463.68 1368.12 1423.6 1411.24 1372.9 1440.07C1261.12 1503.64 1179.88 1378.26 1132.3 1313.9C1110.42 1284.3 1085.08 1239.08 1041.72 1226.95C1010.74 1218.28 979.24 1212.99 949.222 1201.83C868.607 1171.84 773.796 1110.97 786.435 1029.88C791.836 995.181 813.752 963.559 828.467 931.17C843.622 897.818 852.074 863.394 861.347 828.728C870.009 796.329 882.332 770.508 915.359 749.587C931.131 739.588 950.009 740.475 969.357 739.587C1001.14 738.139 1033.1 737.246 1064.77 737.604Z" stroke="#5BE7C3"/>
<path fill-rule="evenodd" clip-rule="evenodd" d="M1073.33 769.952C1174.26 782.999 1284.44 831.405 1343.04 902.56C1411.98 986.259 1470.02 1076.93 1486.7 1176.92C1494.43 1223.28 1498.23 1274.06 1472.91 1317.8C1453.65 1351.08 1424.87 1389.74 1384.4 1408.06C1285.42 1452.86 1206.65 1353.15 1160.87 1296.34C1136.22 1265.75 1112.21 1226.82 1076.22 1203.77C1055.35 1190.39 1027.74 1183.56 1004.82 1172.76C935.357 1140.03 879.337 1086.16 869.33 1019.07C864.707 988.048 870.439 956.803 874.997 926.02C879.661 894.508 882.196 862.605 888.701 831.29C893.897 806.292 902.693 776.833 935.343 767.632C976.487 756.029 1032.11 764.628 1073.33 769.952Z" stroke="#A6F4C5"/>
<path fill-rule="evenodd" clip-rule="evenodd" d="M1089.54 801.675C1184.43 820.693 1276.98 860.945 1333.62 928.592C1363.65 964.466 1384.38 1006.11 1404.86 1046.09C1428.07 1091.4 1446.09 1138.75 1455.02 1187.11C1466.14 1247.31 1476.16 1344.82 1392.44 1376.26C1309.33 1407.47 1235.8 1328.56 1193.9 1281.9C1167.06 1251.98 1142.42 1219.97 1113.08 1191.38C1097.17 1175.88 1078.78 1163.94 1060.12 1150.82C1008.42 1114.57 967.489 1062.89 945.646 1010.22C924.47 959.177 915.103 896.03 922.115 842.151C925.128 818.903 935.284 802.288 964.15 795.263C1004.28 785.528 1050.34 793.814 1089.54 801.675Z" stroke="#32D583"/>
<path fill-rule="evenodd" clip-rule="evenodd" d="M1115.09 833.199C1198.64 852.09 1274.94 892.816 1325.07 952.21C1381.28 1018.79 1412.5 1104.51 1428.36 1183.29C1436.79 1225.17 1459.65 1315.92 1394.18 1337.26C1328.71 1358.59 1264.2 1296.87 1228.69 1261.35C1185.66 1218.24 1144.11 1171.76 1105.5 1125.33C1071.94 1085 1037.62 1041.96 1011.7 998.27C996.993 973.631 984.988 947.964 975.825 921.575C969.094 902.035 959.055 877.187 964.071 856.703C976.741 805.036 1075.14 824.164 1115.09 833.199Z" stroke="#32D583"/>
<path fill-rule="evenodd" clip-rule="evenodd" d="M1140.1 872.11C1298.1 913.554 1375.78 1044.78 1402.84 1171.12C1409.12 1200.48 1431.78 1282.78 1383.51 1299.18C1336.71 1315.07 1281.22 1264.49 1254.93 1240.81C1173.47 1167.43 1113.07 1076.77 1053.24 990.872C1034.57 964.059 994.037 915.699 1012.74 882.446C1033.09 846.342 1107.34 863.524 1140.1 872.11Z" stroke="#A6F4C5"/>
<path fill-rule="evenodd" clip-rule="evenodd" d="M1170.51 914.536C1286.86 950.574 1353.57 1055.34 1375.55 1151.66C1380.93 1175.25 1397.68 1235.16 1365.21 1253.02C1335.17 1269.55 1291.65 1230.08 1274.36 1215.32C1235.85 1182.45 1204.13 1143.49 1173.65 1105.01C1145.44 1069.43 1116.53 1033.46 1092.67 996.023C1080.12 976.303 1053.32 939.318 1072.72 916.916C1093.59 892.798 1144.67 906.535 1170.51 914.536Z" stroke="#A6F4C5"/>
<path fill-rule="evenodd" clip-rule="evenodd" d="M1204.49 961.289C1280.47 988.754 1329.8 1062.28 1346.19 1127.14C1350.58 1144.59 1362 1182.31 1341.7 1197.03C1323.01 1210.58 1295.62 1188.73 1282.97 1179.03C1226.89 1136.06 1176.81 1073.13 1146.05 1015.48C1138.32 1000.98 1123.14 974.928 1138.75 960.021C1154.79 944.731 1187.05 954.98 1204.49 961.289Z" stroke="#32D583"/>
<path fill-rule="evenodd" clip-rule="evenodd" d="M1236.4 1010.88C1274.13 1026.36 1302.59 1066.79 1311.65 1100.28C1318.01 1123.85 1312.5 1152.18 1279.66 1131.63C1247.07 1111.22 1217.31 1073.36 1204.12 1041.27C1194.06 1016.78 1203.99 997.596 1236.4 1010.88Z" fill="#32D583" stroke="#32D583"/>
<path fill-rule="evenodd" clip-rule="evenodd" d="M975.309 -243.51C1049.85 -244.488 1127.33 -276.93 1203.28 -260.886C1265.66 -247.712 1270.86 -181.445 1299.12 -141.687C1321.56 -110.092 1361.34 -92.1571 1399.5 -75.0658C1433.76 -59.7095 1469.05 -45.9153 1502.74 -29.7389C1524.53 -19.2672 1567.3 -1.28454 1568.07 21.416C1568.81 43.1479 1535.47 63.0688 1515.76 75.6885C1490.07 92.1425 1462.68 106.729 1436.58 122.707C1392.56 149.633 1359.97 181.943 1329.12 218.94C1294.02 261.043 1260.12 303.841 1227.42 347.335C1203.28 379.358 1179.31 411.599 1152.78 442.379C1136.13 461.686 1104.89 504.3 1074.2 504.49C1059.56 504.581 1043.35 493.212 1031.65 485.546C1011.84 472.575 993.727 457.792 976.007 442.962C942.999 415.342 911.489 386.551 879.597 358.071C838.207 321.107 797.493 285.799 750.503 253.301C701.862 219.702 651.619 187.603 602.063 154.847C568.491 132.663 530.789 110.503 510.192 78.5103C484.446 38.4398 511.608 5.55835 511.931 -34.9602C512.214 -69.8153 610.805 -67.2263 638.22 -71.6502C665.968 -76.0897 691.801 -85.8804 719.616 -89.6715C754.337 -94.3986 789.859 -94.4543 824.952 -95.6114C867.876 -97.0171 908.74 -97.5716 925.115 -135.15C934.419 -156.536 936.379 -179.674 941.954 -201.811C945.572 -216.152 951.758 -243.202 975.309 -243.51Z" stroke="#32D583"/>
<path fill-rule="evenodd" clip-rule="evenodd" d="M988.566 -226.372C1051.05 -230.014 1131.04 -251.583 1195.53 -231.159C1250.65 -213.71 1257.79 -159.172 1286.73 -122.443C1310.61 -92.1231 1349.69 -78.6203 1388.08 -63.4589C1418.88 -51.2955 1449.97 -39.4996 1479.78 -25.6934C1501.75 -15.5187 1538.84 0.0178805 1543.39 21.1654C1547.47 40.1771 1514.72 60.5585 1498.06 71.2264C1473.73 86.7903 1447.32 100.101 1421.45 113.849C1376.02 138.007 1335.17 162.745 1301.8 198.108C1268.28 233.627 1243.21 272.489 1217.12 311.765C1196.71 342.492 1175.71 373.062 1152.15 402.254C1134.6 424 1112.15 455.266 1080.87 465.211C1056.12 473.084 1015.07 433.122 1000.58 421.338C970.792 397.079 942.826 371.374 915.032 345.622C881.163 314.228 851.545 281.833 812.908 254.107C743.83 204.517 657.803 163.06 606.468 99.2583C575.504 60.7768 567.593 17.9578 572.235 -24.8353C574.072 -41.7804 603.277 -45.843 620.31 -47.9755C648.607 -51.5219 677.39 -51.9623 705.801 -54.6872C732.398 -57.2403 757.667 -62.9152 783.747 -67.4869C810.172 -72.1133 837.245 -73.4068 863.851 -76.8126C880.369 -78.9218 899.59 -81.0069 912.87 -90.2438C926.619 -99.8014 932.383 -115.572 936.761 -129.356C944.905 -155.242 944.469 -223.799 988.566 -226.372Z" stroke="#5BE7C3"/>
<path fill-rule="evenodd" clip-rule="evenodd" d="M1014.72 -204.313C1072.08 -210.446 1143.52 -219.035 1196.36 -193.993C1239.57 -173.524 1248.88 -129.885 1277.03 -98.7112C1300.43 -72.7827 1337.67 -62.9835 1372.27 -50.1088C1400.65 -39.5443 1429.16 -28.925 1456.16 -16.1222C1476.65 -6.41235 1504.42 6.10103 1511.56 25.3732C1517.66 41.8509 1490.3 60.4589 1476.69 69.5908C1453.48 85.1392 1427.48 97.8144 1401.82 110.404C1359.84 130.997 1315 149.946 1280.85 179.261C1247.71 207.746 1228.14 241.587 1206.14 276.062C1189.29 302.468 1171.79 328.71 1151.69 353.589C1136.27 372.692 1118 396.367 1092.34 406.318C1070.21 414.924 1044.03 392.814 1028.42 381.767C1002.67 363.524 979.038 343.278 955.314 323.314C929.721 301.769 906.113 277.906 879.89 257.057C824.706 213.214 763.605 178.183 721.332 124.15C693.948 89.1572 669.075 42.0711 673.558 0.712516C676.788 -29.0306 757.138 -27.0583 782.812 -29.9103C824.792 -34.5987 868.9 -43.662 907.57 -58.0647C940.707 -70.4333 950.931 -99.8385 958.368 -126.888C963.036 -143.833 965.559 -161.593 972.774 -177.982C981.136 -196.954 990.677 -201.742 1014.72 -204.313Z" stroke="#A6F4C5"/>
<path fill-rule="evenodd" clip-rule="evenodd" d="M1041.6 -183.736C1090.1 -187.385 1147.44 -186.552 1189.38 -162.846C1226.12 -142.071 1235.79 -105.093 1264.73 -78.7887C1287.31 -58.2594 1324.12 -50.1912 1353.99 -39.1474C1390.5 -25.6504 1457.93 -6.73407 1471.67 27.2992C1484.43 58.9587 1402.83 92.0492 1378.49 103.506C1339.98 121.642 1297.74 136.808 1262.17 158.807C1231.54 177.751 1214.61 203.138 1196.42 230.083C1173.18 264.438 1145.62 316.599 1100.34 334.961C1066.6 348.648 1016.45 304.11 993.075 288.9C968.659 272.992 939.717 261.009 916.162 244.592C878.994 218.686 849.071 176.714 826.238 142.06C804.026 108.37 779.444 64.6201 780.915 26.4064C781.877 1.29098 829.223 -3.47861 852.351 -8.83258C885.23 -16.5035 914.693 -26.7055 937.059 -48.6284C959.827 -70.9429 970.558 -97.2473 979.95 -124.899C984.737 -139.093 988.472 -155.286 998.139 -167.982C1008.66 -182.011 1022.96 -182.329 1041.6 -183.736Z" stroke="#32D583"/>
<path fill-rule="evenodd" clip-rule="evenodd" d="M1069.55 -158.666C1111.44 -158.454 1156.12 -150.598 1188.43 -127.323C1215.34 -107.937 1224.33 -77.5986 1251.85 -59.0402C1273.63 -44.3404 1304.21 -36.8539 1329.51 -27.0102C1360.51 -14.9713 1414.66 2.05392 1425.41 31.9783C1435.88 61.1843 1376.23 87.0035 1352.62 98.1964C1318.01 114.588 1281.32 127.855 1246.8 144.395C1219.72 157.352 1202.26 173.2 1184.8 194.303C1164.3 219.076 1141.58 253.64 1107.67 266.869C1083.11 276.406 1043.87 253.301 1022.24 244.91C1007.72 239.285 992.958 234.136 977.21 231.307C964.947 229.102 953.597 228.882 943.067 222.5C916.582 206.433 913.132 171.215 904.406 147.32C892.824 115.583 879.662 81.9105 877.155 48.7003C875.588 28.2884 898.546 17.8762 914.697 6.229C933.79 -7.53379 947.524 -27.0213 961.933 -44.0411C980.98 -66.5027 992.83 -90.9489 1004.97 -116.238C1010.44 -127.646 1015.81 -141.044 1026.7 -149.881C1037.98 -159.109 1054.43 -158.739 1069.55 -158.666Z" stroke="#32D583"/>
<path fill-rule="evenodd" clip-rule="evenodd" d="M1094.41 -132.335C1129.6 -128.295 1163.23 -115.72 1188.1 -94.4851C1207.19 -78.2075 1217.94 -56.5928 1240.88 -43.527C1262.26 -31.3525 1286.58 -22.867 1309.45 -12.8105C1333.62 -2.1676 1374.03 13.6452 1380.6 38.1824C1387.68 64.6271 1346.92 84.989 1324.32 96.2639C1295.77 110.508 1265.05 121.328 1235.52 134.063C1213.5 143.657 1193.37 155.897 1175.78 170.375C1157.25 185.559 1139.49 206.152 1114.01 213.831C1091.43 220.619 1064.13 207.904 1041.24 205.656C1016.79 203.252 991.102 207.452 970.108 194.144C926.811 166.7 934.855 97.8461 933.936 58.482C932.989 19.6415 959.491 -11.5803 984.705 -43.0057C1001.35 -63.7631 1015.45 -85.3809 1030.96 -106.662C1046.79 -128.358 1063.45 -135.89 1094.41 -132.335Z" stroke="#A6F4C5"/>
<path fill-rule="evenodd" clip-rule="evenodd" d="M1114.55 -107.872C1165.52 -95.935 1192.61 -58.6772 1231.12 -32.0384C1262.65 -10.2424 1327.96 6.10875 1336.59 42.8077C1346.39 84.4733 1259.85 109.399 1226.46 123.877C1189.42 139.943 1159.3 168.563 1120.09 180.459C1099.52 186.712 1080.32 181.335 1059.75 177.999C1037.17 174.342 1014.08 171.593 995.911 158.981C960.146 134.158 960.404 85.6896 959.426 50.7832C958.411 14.6488 982.929 -17.3119 1007.4 -46.0972C1033.31 -76.6263 1062.28 -120.099 1114.55 -107.872Z" stroke="#A6F4C5"/>
<path fill-rule="evenodd" clip-rule="evenodd" d="M1128.37 -87.8923C1164.68 -74.4454 1194.2 -46.1969 1222.07 -23.2743C1245.3 -4.14191 1292.07 16.4446 1295.4 45.6097C1299.33 79.8879 1249.38 100.653 1218.75 114.134C1188.65 127.403 1156.87 146.525 1123.84 153.868C1089.43 161.527 1043.09 141.106 1018.75 121.635C991.601 99.9177 981.576 64.3936 982.665 33.9137C983.773 1.99992 1006.22 -27.2785 1029.5 -51.4439C1054.38 -77.2791 1086.21 -103.53 1128.37 -87.8923Z" stroke="#32D583"/>
<path fill-rule="evenodd" clip-rule="evenodd" d="M1135.2 -69.3542C1165.4 -56.5104 1190.95 -34.252 1213.74 -13.729C1231.34 2.10894 1261.25 25.4801 1261.98 48.3252C1262.78 73.4571 1237.66 94.7516 1211.92 104.738C1186.53 114.582 1154.69 124.954 1126.84 126.423C1066.17 129.613 998.237 64.4165 1003.78 15.4709C1009.03 -30.9356 1075.02 -94.9628 1135.2 -69.3542Z" stroke="#A6F4C5"/>
<path fill-rule="evenodd" clip-rule="evenodd" d="M1138.53 -52.2105C1177.88 -34.4923 1233.98 8.53805 1235.31 48.3656C1236.82 94.0811 1174.38 105.545 1129.13 99.5777C1082.95 93.5155 1016.12 40.7962 1025.16 -1.22842C1033.98 -42.2442 1091.86 -73.209 1138.53 -52.2105Z" stroke="#5BE7C3"/>
<path fill-rule="evenodd" clip-rule="evenodd" d="M1144.89 -34.1087C1177.84 -19.1073 1218.99 12.8988 1220.23 46.2726C1221.7 86.0382 1168.98 85.2779 1136.17 76.2543C1102.11 66.871 1043.94 25.5629 1053.13 -9.25444C1062.1 -43.1107 1113.31 -48.4847 1144.89 -34.1087Z" stroke="#32D583"/>
<path fill-rule="evenodd" clip-rule="evenodd" d="M1148.68 -18.3428C1172.19 -8.44052 1201.9 16.337 1202.85 39.8865C1203.99 68.671 1162.18 63.0675 1142 55.6266C1117.99 46.7822 1076.27 17.1435 1083.03 -7.72102C1089.7 -32.2016 1129.31 -26.5124 1148.68 -18.3428Z" stroke="#A6F4C5"/>
<path fill-rule="evenodd" clip-rule="evenodd" d="M-195.041 1335.45C-242.204 1271.73 -281.131 1199.7 -320.698 1131.78C-378.512 1032.51 -434.771 931.786 -477.833 827.488C-500.913 771.569 -534.191 699.109 -516.088 639.116C-509.471 617.182 -489.468 597.181 -476.468 577.516C-458.543 550.399 -441.505 522.883 -424.429 495.414C-390.202 440.312 -356.317 385.038 -319.895 330.882C-302.352 304.805 -280.257 279.504 -265.29 252.355C-256.537 236.489 -260.627 217.501 -261.177 200.547C-262.458 161.274 -264.893 122.024 -266.966 82.774C-269.495 34.7655 -272.186 -13.3526 -271.175 -61.4152C-270.712 -83.0926 -275.397 -136.185 -252.608 -148.114C-240.336 -154.532 -218.211 -139.396 -207.974 -132.379C-189.16 -119.496 -172.207 -104.689 -155.426 -90.0773C-116.615 -56.2867 -79.657 -20.4006 -36.3043 9.63719C-14.0174 25.0707 13.2114 45.2911 43.6425 35.2246C74.379 25.0643 100.995 7.45828 131.626 -3.28075C166.877 -15.6455 203.557 -20.7685 240.934 -26.6029C268.558 -30.9222 293.035 -40.9898 318.504 -50.4552C346.655 -60.9132 375.044 -71.7465 404.731 -79.0058C424.34 -83.8036 459.618 -91.5465 472.029 -74.7464C489.677 -50.8758 475.375 -6.12373 470.169 21.0817C462.986 58.6797 453.838 96.0036 445.959 133.5C440.228 160.721 433.944 188.036 433.271 215.711C432.184 260.325 435.907 305.088 439.371 349.586C445.787 431.98 454.492 513.785 454.476 596.456C454.462 668.885 352.169 836.242 334.156 875.418C298.197 953.612 264.107 1033.89 216.269 1107.88C203.317 1127.9 186.059 1158.71 159.406 1169.23C142.983 1175.73 133.49 1172.74 122.905 1188.07C108.464 1208.97 102.791 1235.77 96.3265 1258.91C85.9187 1296.19 77.1043 1333.76 67.6792 1371.2C48.6666 1446.95 27.1638 1522.17 6.47191 1597.6C0.217561 1620.4 -1.17133 1647.99 -12.1869 1669.73C-19.2601 1683.74 -28.1625 1682.29 -38.9046 1671.44C-57.7557 1652.41 -68.2181 1625.74 -78.9675 1603.26C-94.7149 1570.33 -108.764 1536.86 -122.612 1503.37C-136.461 1469.88 -149.88 1436.22 -163.757 1402.71C-172.894 1380.58 -180.322 1355.34 -195.041 1335.45Z" stroke="#32D583"/>
<path fill-rule="evenodd" clip-rule="evenodd" d="M-184.654 1283.03C-231.912 1215.63 -269.556 1140.81 -306.284 1068.69C-353.317 976.379 -397.398 881.984 -426.792 784.73C-444.038 727.627 -463.079 660.253 -443.278 601.914C-436.212 581.101 -420.338 565.555 -406.326 547.716C-390.335 527.382 -375.683 506.266 -361.259 485.149C-331.571 441.681 -302.896 397.754 -275.234 353.368C-260.523 329.858 -240.824 303.979 -235.717 277.417C-231.651 256.299 -237.523 232.308 -239.23 211.095C-242.299 172.892 -245.464 134.698 -248.152 96.4796C-251.249 52.3794 -254.107 8.15405 -253.602 -36.0393C-253.32 -60.6703 -257.889 -102.956 -238.459 -120.372C-221.504 -135.566 -160.207 -80.2228 -148.56 -70.4901C-112.198 -40.0952 -77.5745 -8.1284 -38.6888 20.1629C-15.7587 36.8826 12.1301 57.2405 42.525 64.2938C68.4289 70.2982 97.9483 58.7275 121.896 51.8958C151.892 43.3523 182.987 36.4594 212.354 26.5313C238.518 17.6898 261.827 3.61487 285.613 -8.74691C311.779 -22.3441 338.375 -36.1133 366.919 -46.2058C384.483 -52.3895 413.897 -62.6226 430.636 -50.3235C449.936 -36.1153 437.314 7.66915 434.559 25.6667C428.895 62.1781 420.479 98.4073 412.942 134.668C400.432 194.894 389.489 252.312 392.096 313.644C395.501 393.513 403.532 473.306 407.969 553.16C409.626 582.649 412.965 612.607 411.153 642.118C410.108 659.037 403.799 671.918 389.569 681.755C370.15 695.19 359.394 726.139 348.248 747.662C330.879 781.223 314.723 815.205 298.358 849.094C262.415 923.489 227.771 999.315 181.288 1069.87C166.588 1092.19 150.195 1117.75 125.911 1134.25C112.369 1143.47 99.3262 1141.14 84.9344 1146.76C66.0035 1154.2 57.4561 1178.68 51.2613 1193.32C39.2923 1221.56 31.2695 1250.96 23.7532 1280.14C6.75076 1346.15 -4.43244 1412.32 -12.6727 1479.41C-14.5868 1495.13 -21.2207 1557.04 -53.13 1524.51C-88.3927 1488.58 -105.669 1436.7 -125.536 1394.41C-143.398 1356.3 -160.017 1318.17 -184.654 1283.03Z" stroke="#5BE7C3"/>
<path fill-rule="evenodd" clip-rule="evenodd" d="M-175.894 1189.89C-217.469 1126.54 -248.482 1056.36 -278.149 988.127C-314.149 905.331 -346.237 820.46 -364.204 733.626C-375.48 679.079 -384.141 618.94 -365.374 564.766C-352.563 527.771 -317.944 499.158 -294.125 466.667C-270.305 434.176 -247.945 400.369 -229.306 365.551C-217.738 343.942 -206.085 320.696 -207.607 296.649C-211.297 238.18 -220.111 179.78 -224.384 121.247C-227.238 82.5261 -229.587 43.7268 -228.874 4.88874C-228.45 -18.5315 -230.161 -50.7066 -215.121 -71.4383C-198.487 -94.3543 -56.5278 27.7079 -40.5495 39.245C-0.484704 68.1699 52.6877 103.197 109.675 97.6173C164.152 92.2797 204.828 69.1098 247.518 42.9023C271.801 28.0294 336.677 -19.6679 368.253 -1.98107C386.302 8.12346 380.046 41.4166 378.812 57.2335C376.383 88.4054 371.168 119.404 366.64 150.411C360.077 195.622 349.945 242.077 346.969 287.485C344.903 319.103 347.654 350.91 347.705 382.583C347.772 427.999 347.344 473.415 346.839 518.83C346.412 556.963 346.824 595.418 342.352 633.417C339.6 657.041 333.424 674.971 315.98 691.912C300.808 706.654 291.921 728.898 282.272 747.689C266.343 778.725 251.578 810.168 236.574 841.51C205.154 907.13 174.392 973.501 135.13 1036.31C117.216 1064.98 92.1345 1113.19 48.714 1119.9C33.0575 1122.33 26.2929 1124.11 17.3891 1136.64C4.75397 1154.42 -0.945861 1175.72 -5.90126 1195.67C-17.4543 1242.18 -15.7367 1290.03 -27.1561 1336.47C-31.8633 1355.38 -42.0192 1380.06 -65.2559 1358.47C-92.4321 1333.27 -107.366 1296.6 -124.151 1266.42C-132.525 1251.35 -140.364 1235.83 -150.589 1221.53C-158.467 1210.54 -168.569 1201.13 -175.894 1189.89Z" stroke="#A6F4C5"/>
<path fill-rule="evenodd" clip-rule="evenodd" d="M-162.887 1069.92C-196.653 1011.38 -221.2 947.82 -243.327 885.397C-267.872 816.064 -288.2 745.057 -296.841 673.115C-302.827 623.439 -304.586 570.512 -286.225 522.302C-274.609 491.814 -250.19 471.149 -229.71 444.916C-198.755 405.324 -174.226 362.486 -180.185 314.913C-186.85 261.578 -191.848 208.069 -195.178 154.385C-197.19 122.003 -198.694 89.496 -197.282 57.0754C-196.399 36.577 -194.911 10.1684 -183.575 -7.66207C-168.394 -31.5194 -52.9236 58.1273 -36.0943 69.3023C5.64447 97.017 49.4407 117.336 101.157 129.214C143.358 138.901 176.537 119.136 208.11 98.7447C227.717 86.0678 277.034 45.1036 302.489 57.9377C316.527 64.9765 315.795 88.1643 316.51 100.618C317.864 124.354 316.444 148.19 315.818 171.925C314.855 206.973 321.417 244.281 316.122 279.031C304.402 356.043 294.25 432.86 286.211 510.349C281.785 553.065 277.76 596.04 269.231 638.372C266.168 653.569 262.923 669.267 255.996 683.666C251.547 692.93 243.972 697.979 237.754 705.795C208.158 743.066 192.924 791.721 173.952 833.7C148.732 889.507 123.904 945.611 94.1135 999.932C78.4432 1028.5 60.4373 1068.41 28.4632 1088.07C18.8031 1094.01 11.0764 1091.47 1.78963 1095.21C-8.92215 1099.5 -12.1188 1112.57 -15.1042 1121C-21.8883 1140.15 -32.1557 1220.29 -71.9226 1183.35C-90.8642 1165.72 -103.015 1143.27 -117.901 1123.4C-123.294 1116.21 -128.715 1109.19 -135.991 1103.19C-148.192 1093.16 -155.152 1083.28 -162.887 1069.92Z" stroke="#32D583"/>
<path fill-rule="evenodd" clip-rule="evenodd" d="M-148.238 942.079C-202.864 826.533 -240.069 691.123 -232.831 565.161C-230.416 523.273 -222.372 478.206 -194.869 441.901C-178.624 420.493 -160.287 403.388 -154.416 377.67C-150.18 359.104 -154.981 339.111 -156.717 320.434C-159.234 293.383 -161.483 266.316 -163.303 239.225C-165.522 205.641 -167.236 171.946 -166.312 138.299C-165.648 114.257 -166.387 81.0565 -150.619 60.1741C-131.812 35.2421 -43.6233 98.7301 -27.909 107.664C10.1781 129.317 47.0816 144.498 92.9868 149.991C106.362 151.607 120.071 157.047 133.551 156.344C147.318 155.61 159.577 148.664 170.403 142.25C184.592 133.863 218.246 104.758 235.547 113.097C245.1 117.705 246.3 134.995 248.324 143.957C252.142 160.77 254.193 177.825 257.228 194.739C262.401 223.436 279.258 251.931 278.774 280.729C277.498 358.168 248.172 436.721 232.059 512.606C222.449 557.72 213.727 603.14 200.716 647.705C196.595 661.806 192.332 676.329 185.345 689.732C180.471 699.085 171.785 705.092 166.328 713.755C145.37 746.975 132.647 785.179 118.538 820.852C100.186 867.163 82.388 913.631 62.8511 959.621C50.6071 988.448 39.8327 1025.52 17.128 1050.35C0.548604 1068.49 -4.40746 1056.09 -19.8446 1046.52C-27.7161 1041.63 -35.474 1042.75 -44.3873 1040.63C-57.1125 1037.59 -66.2729 1029.02 -74.5068 1020.98C-85.8833 1009.89 -95.2528 995.125 -109.2 986.059C-114.11 982.862 -120.205 983.009 -124.485 980.423C-136.951 972.9 -143.1 952.946 -148.238 942.079Z" stroke="#32D583"/>
<path fill-rule="evenodd" clip-rule="evenodd" d="M-128.745 819.244C-163.085 725.467 -182.628 621.129 -173.529 522.011C-170.359 487.525 -163.003 452.829 -146.855 420.708C-139.532 406.093 -131.368 395.123 -130.925 379.108C-129.905 341.947 -133.443 304.668 -134.287 267.515C-134.893 240.927 -135.108 214.206 -132.494 187.681C-130.751 169.945 -128.663 145.961 -115.385 131.434C-96.0475 110.324 -30.3307 148.451 -12.1738 156.212C17.9381 169.074 51.4141 181.835 86.2602 176.743C96.9167 175.181 106.331 172.415 117.197 172.057C126.535 171.715 135.155 172.679 144.082 169.967C155.15 166.614 172.327 151.697 182.513 156.829C189.47 160.325 189.793 170.695 192.019 177.593C195.628 188.78 200.363 199.704 206.176 210.252C212.329 221.358 221.836 230.814 226.918 242.318C235.153 260.994 235.923 281.897 235.881 301.525C235.713 379.843 216.842 459.151 197.111 535.478C186.839 575.226 175.888 615.192 160.312 653.82C155.579 665.549 150.827 678.842 142.09 689.155C136.65 695.59 129.835 699.952 125.744 707.263C90.81 769.715 77.8272 841.923 52.5933 908.224C46.0242 925.482 12.8332 1021.12 -18.3611 971.108C-37.3165 940.723 -45.9308 908.62 -71.8634 880.893C-79.7464 872.446 -86.2728 866.814 -98.3045 863.512C-106.313 861.336 -102.252 866.569 -110.623 859.263C-120.685 850.401 -124.743 830.17 -128.745 819.244Z" stroke="#32D583"/>
<path fill-rule="evenodd" clip-rule="evenodd" d="M-108.41 721.749C-136.433 611.959 -137.744 495.698 -112.862 384.186C-106.596 356.075 -108.086 326.817 -106.489 298.36C-104.959 270.711 -108.123 221.551 -82.1717 201.473C-63.3586 186.915 -23.3874 202.723 -2.34836 208.193C24.4555 215.162 52.1456 221.252 78.1811 209.824C93.4289 203.13 107.943 193.958 123.048 186.778C130.262 183.345 141.317 176.274 148.149 179.223C159.421 184.103 164.162 206.923 169.477 217.997C186.461 253.39 190.789 290.866 190.658 328.702C190.425 398.587 178.748 468.831 162.917 537.38C155.631 568.918 147.858 600.895 135.198 631.31C128.038 648.521 114.228 661.214 106.04 677.649C79.6532 730.567 65.5489 787.425 41.4205 841.253C34.4328 856.834 11.1707 915.03 -16.2386 885.705C-42.7715 857.313 -39.6094 815.909 -64.5698 786.388C-67.4279 783.047 -70.848 778.914 -75.4692 776.976C-78.2324 775.831 -83.4928 777.845 -85.0649 776.974C-102.149 767.906 -104.858 735.684 -108.41 721.749Z" stroke="#A6F4C5"/>
<path fill-rule="evenodd" clip-rule="evenodd" d="M-89.8618 650.625C-99.2786 594.301 -101.605 536.74 -102.188 479.469C-102.508 448.165 -104.935 413.77 -95.2523 383.142C-89.2894 364.327 -84.0739 346.155 -80.3145 326.76C-76.2673 305.891 -73.3196 272.29 -51.4057 259.585C-35.0302 250.094 -1.37385 256.608 18.5351 256.957C40.3698 257.329 56.5622 253.663 72.191 241.036C82.0321 233.096 117.757 196.671 128.055 200.883C137.865 204.891 139.364 230.277 141.911 241.254C149.99 275.947 152.8 311.101 152.353 346.389C151.672 401.041 144.859 455.895 133.16 509.691C128.298 531.931 123.264 554.917 113.554 576.161C107.008 590.468 95.403 602.398 88.6361 616.611C69.2271 657.312 56.0451 700.35 36.2815 741.192C29.9269 754.299 13.0084 797.008 -13.0495 786.764C-34.806 778.222 -41.4208 749.182 -56.0001 734.911C-80.8674 710.633 -84.6941 681.578 -89.8618 650.625Z" stroke="#A6F4C5"/>
<path fill-rule="evenodd" clip-rule="evenodd" d="M-77.3505 615.146C-83.5832 570.467 -86.3038 524.75 -86.4287 479.416C-86.509 450.158 -86.9898 419.293 -78.9583 390.584C-74.9282 376.163 -65.5065 363.633 -58.7854 349.985C-51.8733 335.932 -44.1586 316.538 -28.3155 310.466C-13.4268 304.762 8.29345 306.897 26.2454 301.888C42.1741 297.433 52.0151 288.104 62.7819 278.057C69.6639 271.656 99.455 238.781 106.03 242.585C113.072 246.662 112.495 266.409 113.467 276.685C116.19 304.996 117.054 333.407 116.056 361.794C114.598 400.537 110.544 439.577 101.375 477.648C94.8803 504.655 79.4161 525.024 68.0738 550.203C53.3422 582.822 41.6928 616.613 25.5774 648.92C17.5484 665.019 7.21791 688.848 -13.5023 697.089C-21.4429 700.258 -41.6372 703.33 -49.5766 699.799C-59.1191 695.558 -63.1625 679.777 -65.6137 672.327C-71.7273 653.665 -74.7011 634.136 -77.3505 615.146Z" stroke="#32D583"/>
<path fill-rule="evenodd" clip-rule="evenodd" d="M-62.1052 573.294C-69.765 517.442 -76.2632 454.337 -60.8155 398.319C-54.5788 375.681 -36.1172 353.139 -10.9464 343.912C2.06574 339.131 17.5509 338.106 30.1607 330.964C39.4815 325.676 47.9012 318.947 55.7456 312.311C60.1761 308.572 84.4484 284.621 88.7814 289.242C93.354 294.119 91.856 306.085 91.9695 314.258C92.2438 333.835 91.3195 353.49 89.5036 373.005C87.409 395.442 84.7008 418.407 77.3712 440.165C71.4231 457.716 58.9074 473.707 51.4733 490.798C31.7801 535.73 16.3532 583.078 -12.7935 625.258C-18.9892 634.231 -28.2644 651.976 -42.2611 641.192C-59.6994 627.773 -59.7498 590.55 -62.1052 573.294Z" stroke="#32D583"/>
<path fill-rule="evenodd" clip-rule="evenodd" d="M-48.2706 524.612C-53.6333 484.841 -56.1481 440.723 -45.0759 400.797C-39.4731 380.579 -27.8052 362.543 -5.2269 353.741C10.8665 347.443 28.8252 345.745 44.2906 337.139C49.7473 334.091 65.0608 322.894 68.4019 328.416C75.5887 340.232 67.3091 366.602 63.5352 382.993C57.8173 407.662 41.8164 428.257 32.328 451.712C17.781 487.69 10.0023 533.279 -14.7897 566.066C-38.7626 597.663 -46.7017 536.214 -48.2706 524.612Z" stroke="#5BE7C3"/>
<path fill-rule="evenodd" clip-rule="evenodd" d="M-35.1288 479.14C-39.953 445.395 -42.3283 385.383 -3.46012 366.14C3.75812 362.57 43.6039 352.715 47.1586 362.246C50.0764 370.102 45.2528 382.429 40.7437 391.302C32.4009 407.809 23.307 423.296 16.419 440.356C10.5585 454.88 5.15438 469.751 -1.65703 484.085C-4.51099 490.169 -7.97457 501.604 -14.4797 505.419C-31.9787 515.689 -33.6663 489.413 -35.1288 479.14Z" fill="#32D583"/>
</svg>
